name analog
datacolumns 19
datarows 42
range 0.5710000000000001 0.5915
endheader
time	ground_force_vx	ground_force_vy	ground_force_vz	ground_force_px	ground_force_py	ground_force_pz	l_ground_force_vx	l_ground_force_vy	l_ground_force_vz	l_ground_force_px	l_ground_force_py	l_ground_force_pz	ground_torque_x	ground_torque_y	ground_torque_z	l_ground_torque_x	l_ground_torque_y	l_ground_torque_z
0.5710000000000001	-0.0	-0.0	-0.0	1.1561284065246582	42.65070343017578	-312.56427001953125	-1.3779538869857788	-46.570274353027344	-303.79449462890625	-0.0	-0.0	-0.0	-0.0	-0.0	-0.0	75548.265625	-37250.984375	3519.98193359375
0.5715	-0.0	-0.0	-0.0	1.6431177854537964	42.82852935791016	-312.24530029296875	-1.5884240865707395	-46.705509185791016	-305.4747314453125	-0.0	-0.0	-0.0	-0.0	-0.0	-0.0	75802.3828125	-37209.734375	3532.69775390625
0.5720000000000001	-0.0	-0.0	-0.0	1.8189553022384644	42.92613983154297	-311.9610595703125	-1.7023231983184814	-46.56227493286133	-305.5076904296875	-0.0	-0.0	-0.0	-0.0	-0.0	-0.0	75872.9609375	-37432.30078125	3591.91552734375
0.5725	-0.0	-0.0	-0.0	1.6862894296646118	42.5587158203125	-311.2894897460937	-2.158737897872925	-46.96194839477539	-303.9278564453125	-0.0	-0.0	-0.0	-0.0	-0.0	-0.0	76073.15625	-37383.21875	3522.197021484375
0.5730000000000001	-0.0	-0.0	-0.0	2.0694355964660645	42.801414489746094	-312.3155517578125	-2.048867464065552	-47.25210571289063	-305.8568115234375	-0.0	-0.0	-0.0	-0.0	-0.0	-0.0	76222.421875	-37714.4453125	3573.040771484375
0.5735	-0.0	-0.0	-0.0	1.6323000192642212	42.729618072509766	-312.4942932128906	-2.2893621921539307	-46.978614807128906	-307.56890869140625	-0.0	-0.0	-0.0	-0.0	-0.0	-0.0	76412.8515625	-37622.12109375	3495.38232421875
0.5740000000000001	-0.0	-0.0	-0.0	2.4983904361724854	42.65751266479492	-312.9545288085937	-2.6183557510375977	-47.09257507324219	-305.8568115234375	-0.0	-0.0	-0.0	-0.0	-0.0	-0.0	76358.2578125	-37640.72265625	3525.745849609375
0.5745	-0.0	-0.0	-0.0	2.123147487640381	42.72924423217773	-312.0693054199219	-2.501250505447388	-46.90745544433594	-307.9175720214844	-0.0	-0.0	-0.0	-0.0	-0.0	-0.0	76051.625	-37481.8984375	3438.937744140625
0.5750000000000001	-0.0	-0.0	-0.0	1.8734207153320312	42.871726989746094	-312.35321044921875	-2.626528263092041	-47.0927848815918	-307.1849365234375	-0.0	-0.0	-0.0	-0.0	-0.0	-0.0	76331.96875	-37355.609375	3516.19091796875
0.5755	-0.0	-0.0	-0.0	1.8295302391052248	42.80976104736328	-311.54058837890625	-2.4039762020111084	-46.97838973999024	-306.97344970703125	-0.0	-0.0	-0.0	-0.0	-0.0	-0.0	76610.125	-37639.98046875	3379.808837890625
0.5760000000000001	-0.0	-0.0	-0.0	1.9899380207061768	42.66618347167969	-310.1280212402344	-2.314827919006348	-46.91638946533203	-308.12725830078125	-0.0	-0.0	-0.0	-0.0	-0.0	-0.0	76548.015625	-37402.09765625	3486.793701171875
0.5765	-0.0	-0.0	-0.0	1.7224152088165283	43.0682487487793	-310.9068908691406	-2.492761373519897	-46.7574577331543	-306.5551147460937	-0.0	-0.0	-0.0	-0.0	-0.0	-0.0	76353.2109375	-37586.8671875	3385.826416015625
0.577	-0.0	-0.0	-0.0	2.2210373878479004	42.84407424926758	-310.09197998046875	-2.811908006668091	-46.942604064941406	-307.5321960449219	-0.0	-0.0	-0.0	-0.0	-0.0	-0.0	76377.5234375	-37307.59765625	3619.796875
0.5775	-0.0	-0.0	-0.0	2.165523052215576	42.50923538208008	-311.6382141113281	-2.120089530944824	-46.75789642333984	-305.9980163574219	-0.0	-0.0	-0.0	-0.0	-0.0	-0.0	76622.9375	-37478.89453125	3658.9580078125
0.578	-0.0	-0.0	-0.0	2.1466212272644043	42.80116271972656	-310.96759033203125	-2.572612762451172	-46.82844161987305	-307.3897399902344	-0.0	-0.0	-0.0	-0.0	-0.0	-0.0	76167.5625	-37468.91796875	3558.017578125
0.5785	-0.0	-0.0	-0.0	1.784210205078125	42.66990280151367	-310.2404479980469	-2.5635173320770264	-46.88976287841797	-307.531005859375	-0.0	-0.0	-0.0	-0.0	-0.0	-0.0	76427.421875	-37241.65234375	3587.781494140625
0.579	-0.0	-0.0	-0.0	1.1785345077514648	43.42990493774414	-311.1143493652344	-2.324718952178955	-46.91697692871094	-307.0478515625	-0.0	-0.0	-0.0	-0.0	-0.0	-0.0	76146.0078125	-37652.1015625	3697.484130859375
0.5795	-0.0	-0.0	-0.0	1.46531081199646	43.48616027832031	-310.8734436035156	-2.7408287525177	-46.3872184753418	-308.54132080078125	-0.0	-0.0	-0.0	-0.0	-0.0	-0.0	76386.734375	-37425.796875	3688.11669921875
0.58	-0.0	-0.0	-0.0	1.7556248903274536	43.40650939941406	-311.2783508300781	-2.0680932998657227	-46.80128479003906	-307.9153137207031	-0.0	-0.0	-0.0	-0.0	-0.0	-0.0	76363.7734375	-37318.48046875	3777.45361328125
0.5805	-0.0	-0.0	-0.0	1.746001958847046	43.09770584106445	-310.0541687011719	-2.147602796554565	-46.72217559814453	-306.9407958984375	-0.0	-0.0	-0.0	-0.0	-0.0	-0.0	76240.5078125	-37549.71875	3703.911376953125
0.581	-0.0	-0.0	-0.0	1.3574352264404297	43.35589599609375	-311.50469970703125	-2.0964972972869877	-46.64316940307617	-308.502685546875	-0.0	-0.0	-0.0	-0.0	-0.0	-0.0	76702.9609375	-37280.0625	3668.1318359375
0.5815	-0.0	-0.0	-0.0	1.2779405117034912	43.25721740722656	-311.0367736816406	-2.0967371463775635	-46.63385009765625	-307.126220703125	-0.0	-0.0	-0.0	-0.0	-0.0	-0.0	76597.265625	-37500.84765625	3641.6259765625
0.582	-0.0	-0.0	-0.0	1.3575835227966309	43.63507843017578	-311.85791015625	-2.851990222930908	-46.43463134765625	-308.73931884765625	-0.0	-0.0	-0.0	-0.0	-0.0	-0.0	76549.4453125	-37606.5546875	3644.317138671875
0.5825	-0.0	-0.0	-0.0	1.5263736248016355	42.703250885009766	-312.1722717285156	-2.8608622550964355	-46.87987518310547	-308.6874694824219	-0.0	-0.0	-0.0	-0.0	-0.0	-0.0	76685.0	-37744.1953125	3670.76123046875
0.583	-0.0	-0.0	-0.0	1.2784054279327393	43.030364990234375	-310.6817321777344	-2.5916879177093506	-46.56452560424805	-308.33843994140625	-0.0	-0.0	-0.0	-0.0	-0.0	-0.0	76924.2890625	-37521.6484375	3681.576904296875
0.5835	-0.0	-0.0	-0.0	1.4570866823196411	42.56468963623047	-310.09197998046875	-2.7094428539276123	-46.41679763793945	-309.62176513671875	-0.0	-0.0	-0.0	-0.0	-0.0	-0.0	77006.0234375	-37663.05859375	3575.6318359375
0.584	-0.0	-0.0	-0.0	1.8236980438232424	42.683815002441406	-310.40582275390625	-3.33236026763916	-47.26346206665039	-308.8401794433594	-0.0	-0.0	-0.0	-0.0	-0.0	-0.0	77146.8671875	-37827.9140625	3657.504150390625
0.5845	-0.0	-0.0	-0.0	1.784210205078125	43.30739212036133	-311.1091613769531	-3.0452942848205566	-46.731842041015625	-309.38653564453125	-0.0	-0.0	-0.0	-0.0	-0.0	-0.0	77051.734375	-37759.9453125	3535.465087890625
0.585	-0.0	-0.0	-0.0	2.2791616916656494	42.92057800292969	-309.7787170410156	-3.2627081871032715	-46.82024765014648	-307.9902648925781	-0.0	-0.0	-0.0	-0.0	-0.0	-0.0	77084.6015625	-37862.38671875	3634.464111328125
0.5855	-0.0	-0.0	-0.0	2.388483047485352	42.811180114746094	-309.1924133300781	-2.602067470550537	-46.49630737304688	-309.4642639160156	-0.0	-0.0	-0.0	-0.0	-0.0	-0.0	77192.4765625	-37844.80859375	3621.8837890625
0.586	-0.0	-0.0	-0.0	2.0822770595550537	42.76441955566406	-309.97149658203125	-3.045754194259644	-46.663307189941406	-310.12408447265625	-0.0	-0.0	-0.0	-0.0	-0.0	-0.0	77216.8125	-37901.59765625	3585.223876953125
0.5865	-0.0	-0.0	-0.0	2.3956298828125	43.00911712646485	-310.4046936035156	-2.8685755729675293	-46.77167510986328	-309.6192321777344	-0.0	-0.0	-0.0	-0.0	-0.0	-0.0	77288.046875	-37930.53515625	3661.356689453125
0.587	-0.0	-0.0	-0.0	1.9626312255859373	42.96085357666016	-312.48309326171875	-2.6124792098999023	-46.62392807006836	-308.57550048828125	-0.0	-0.0	-0.0	-0.0	-0.0	-0.0	77279.75	-37878.03125	3862.290283203125
0.5875	-0.0	-0.0	-0.0	1.773872971534729	43.245079040527344	-313.64959716796875	-2.5625598430633545	-46.37889862060547	-307.8725891113281	-0.0	-0.0	-0.0	-0.0	-0.0	-0.0	76920.78125	-37720.703125	3806.335205078125
0.588	-0.0	-0.0	-0.0	2.0103418827056885	42.892459869384766	-312.6464233398437	-2.7096710205078125	-46.03569412231445	-307.49169921875	-0.0	-0.0	-0.0	-0.0	-0.0	-0.0	76843.015625	-38186.39453125	3842.705078125
0.5885	-0.0	-0.0	-0.0	1.6161874532699585	43.44806671142578	-314.6010131835937	-2.5321567058563232	-46.29063415527344	-307.8721008300781	-0.0	-0.0	-0.0	-0.0	-0.0	-0.0	77127.2890625	-37918.671875	3826.630615234375
0.589	-0.0	-0.0	-0.0	1.3854283094406128	42.8454475402832	-314.0395812988281	-2.030147790908813	-45.81864929199219	-308.14031982421875	-0.0	-0.0	-0.0	-0.0	-0.0	-0.0	76539.4375	-37955.59375	3813.579345703125
0.5895	-0.0	-0.0	-0.0	1.3066351413726809	43.15496826171875	-313.0006103515625	-2.187100410461426	-45.750633239746094	-307.0249938964844	-0.0	-0.0	-0.0	-0.0	-0.0	-0.0	76628.9765625	-37796.73046875	3883.068603515625
0.59	-0.0	-0.0	-0.0	1.2700495719909668	42.86692810058594	-313.4984741210937	-1.9413706064224243	-45.84917831420898	-306.8638916015625	-0.0	-0.0	-0.0	-0.0	-0.0	-0.0	76466.8515625	-37944.234375	3860.464111328125
0.5905	-0.0	-0.0	-0.0	1.6737353801727295	42.89297103881836	-314.69976806640625	-1.549472451210022	-45.60489654541016	-308.5919494628906	-0.0	-0.0	-0.0	-0.0	-0.0	-0.0	76482.390625	-37955.9453125	3902.9677734375
0.591	-0.0	-0.0	-0.0	1.741578221321106	42.7825927734375	-315.0943298339844	-1.88367223739624	-45.51665496826172	-305.9792785644531	-0.0	-0.0	-0.0	-0.0	-0.0	-0.0	76487.6328125	-37889.7578125	3831.103271484375
0.5915	-0.0	-0.0	-0.0	2.1335601806640625	43.014530181884766	-313.4407958984375	-1.5185424089431765	-45.49608612060547	-306.5551147460937	-0.0	-0.0	-0.0	-0.0	-0.0	-0.0	76276.8671875	-37773.59765625	3951.85302734375
